<svg xmlns="http://www.w3.org/2000/svg" width="269.924" height="285.037" viewBox="0 0 269.924 285.037">
    <defs>
        <style>
            .cls-1{fill:#3f3d56}.cls-2{fill:#6c63ff}.cls-3{fill:#a0616a}.cls-4{opacity:.1}.cls-5{fill:#2f2e41}.cls-6{fill:#f2f2f2}
        </style>
    </defs>
    <g id="undraw_skateboard_nmbb" transform="translate(.001)">
        <path id="Path_218" d="M376.588 648.582c6.75 12.518 21.076 17.892 21.076 17.892s3.382-14.922-3.368-27.44-21.076-17.892-21.076-17.892-3.382 14.921 3.368 27.44z" class="cls-1" data-name="Path 218" transform="translate(-353.976 -385.403)"/>
        <path id="Path_219" d="M365.751 659.765c12.186 7.332 16.88 21.895 16.88 21.895s-15.065 2.676-27.251-4.66-16.88-21.895-16.88-21.895 15.065-2.672 27.251 4.66z" class="cls-2" data-name="Path 219" transform="translate(-338.5 -400.705)"/>
        <path id="Path_220" d="M765.433 207.9l22.268-4.345s5.431-18.466 11.948-16.293S795.3 207.9 795.3 207.9l-30.957 14.121z" class="cls-3" data-name="Path 220" transform="translate(-533.067 -187.086)"/>
        <path id="Path_221" d="M500.2 259.414l-9.776 12.491s-14.121-.543-9.776 7.06 14.121 3.259 14.664 1.629 16.293-15.75 16.293-15.75z" class="cls-3" data-name="Path 221" transform="translate(-403.067 -220.132)"/>
        <path id="Path_222" d="M590.847 228.92l8.147-4.345s34.759-2.716 47.793 5.974-54.854 9.776-54.854 9.776z" class="cls-2" data-name="Path 222" transform="translate(-453.796 -204.031)"/>
        <path id="Path_223" d="M618.064 208.4s-4.345-10.319 1.629-11.405a26.814 26.814 0 0 1 10.319 0l-6.517 5.431z" class="cls-1" data-name="Path 223" transform="translate(-465.534 -191.383)"/>
        <path id="Path_224" d="M618.064 208.4s-4.345-10.319 1.629-11.405a26.814 26.814 0 0 1 10.319 0l-6.517 5.431z" class="cls-4" data-name="Path 224" transform="translate(-465.534 -191.383)"/>
        <path id="Path_225" d="M539.858 332.5l-15.75-1.086 2.716 4.888s-21.724 6.517-14.664 24.983a238.656 238.656 0 0 0 17.923 35.845l7.06 13.578s14.664 2.172 15.207-2.172 0-6.517-2.716-8.69a13.3 13.3 0 0 1-4.345-8.69c0-2.172.543-4.345-1.086-5.431s-2.172-2.716-2.172-5.974-5.974-15.207-5.974-15.207 19.009-.543 24.983 4.345 25.526 23.354 25.526 23.354a16.454 16.454 0 0 1 2.716 3.8c1.086 2.172 1.086 3.259 3.259 4.345s.543 5.431 0 5.974-5.974 22.267-5.974 22.267-5.974 10.319.543 10.862 12.491 1.086 13.035 0a29.528 29.528 0 0 1 2.172-4.345c1.629-2.716 0-8.69 0-8.69s15.75-20.095 10.862-32.586-15.207-40.733-15.207-40.733l-15.75-6.517-28.786-10.32z" class="cls-5" data-name="Path 225" transform="translate(-417.199 -253.028)"/>
        <path id="Path_226" d="M552.2 472.007s-3.259 12.492-4.345 13.035-13.035 10.862-4.888 12.491 14.121 1.086 15.75-.543 1.086-3.259 3.8-3.8 7.6-2.172 7.06-5.974-3.259-14.121-4.888-15.207-12.489-.002-12.489-.002z" class="cls-5" data-name="Path 226" transform="translate(-430.63 -317.044)"/>
        <path id="Path_227" d="M646.829 523.414s-4.888 3.8-2.172 10.862 6.517 14.664 6.517 14.664 4.345 13.578 11.405 11.405c2.868-.883 4.3-3.289 4.994-5.835a13.956 13.956 0 0 0-1.972-11.356l-4.108-6.162-4.345-11.405z" class="cls-5" data-name="Path 227" transform="translate(-478.005 -340.752)"/>
        <path id="Path_228" d="M615.5 229.34s-6.517-.543-7.6 1.086-5.974 23.354 0 25.526 23.9 5.974 26.612 3.259 3.8-26.612 3.8-26.612z" class="cls-3" data-name="Path 228" transform="translate(-460.254 -206.352)"/>
        <path id="Path_229" d="M615.5 229.34s-6.517-.543-7.6 1.086-5.974 23.354 0 25.526 23.9 5.974 26.612 3.259 3.8-26.612 3.8-26.612z" class="cls-4" data-name="Path 229" transform="translate(-460.254 -206.352)"/>
        <path id="Path_230" d="M575.114 258.758s7.6 7.6 12.491 6.517 16.293-5.974 17.379-8.147 14.664-2.715 14.664-2.715l-14.664 40.733 10.316 34.216s5.974-7.06-10.319-7.6-38.018-8.69-41.819-19.552c0 0-23.9-3.259-24.983-3.8s2.716-3.8 2.716-3.8l15.75-4.345 11.405-14.664z" class="cls-6" data-name="Path 230" transform="translate(-429.645 -217.848)"/>
        <path id="Path_231" d="M574.917 228.211s2.716-3.8 0-3.8-10.319 0-13.035.543-13.035-2.172-14.121 1.086-1.086 23.354 1.086 24.983 3.259 1.629.543 4.888-9.233 14.121-7.6 17.923-17.379 4.888-14.664 9.233a8.92 8.92 0 0 0 7.06 4.345s1.086-8.69 7.6-4.345 15.207 15.207 22.267 8.147 9.776-13.578 10.319-22.811 0-15.207-1.086-20.638 1.631-19.554 1.631-19.554z" class="cls-2" data-name="Path 231" transform="translate(-424.559 -204.137)"/>
        <path id="Path_232" d="M658.911 240.21s4.345 3.8 0 13.035-15.75 30.957-6.517 45.078 13.035 17.922 10.862 20.638a10.55 10.55 0 0 0-2.172 5.974l5.974-2.172a68.351 68.351 0 0 1 3.259-13.035c2.172-5.428-4.346-21.728-4.346-21.728l2.172-21.181s8.69-13.578 9.776-14.121-2.172-23.9-2.172-23.9-5.431-1.629-8.147 0-8.689 11.412-8.689 11.412z" class="cls-2" data-name="Path 232" transform="translate(-480.312 -205.816)"/>
        <path id="Path_233" d="M542.591 228.414h-3.259l-22.267 11.405s-1.629-7.06-2.715-5.431-.543 5.974-3.259 7.06-4.345 2.716 0 4.888 4.888.543 4.888 4.345 3.259 4.345 5.974 3.259 3.259-1.629 5.974-.543 1.086 2.716 4.888 1.086 13.578-1.086 13.578-1.086z" class="cls-2" data-name="Path 233" transform="translate(-416.13 -205.968)"/>
        <path id="Path_234" d="M691.347 226.874l3.8-1.086s11.405 1.086 14.121 1.086 5.431-.543 7.06-.543 9.776-1.086 10.862-2.172 5.974-3.8 6.517-2.172 6.517 11.948 1.086 16.836-6.517 2.716-9.776 4.888-29.328 6.517-29.871 5.974-3.799-22.811-3.799-22.811z" class="cls-2" data-name="Path 234" transform="translate(-499.713 -202.8)"/>
        <ellipse id="Ellipse_89" cx="16.293" cy="16.293" class="cls-3" data-name="Ellipse 89" rx="16.293" ry="16.293" transform="translate(153.073 12.126)"/>
        <path id="Path_235" d="M624.1 230.36a3.086 3.086 0 0 1 .337 1.14 4.266 4.266 0 0 0 4.082 3.289 2.549 2.549 0 0 0 2.21 3.086 14.048 14.048 0 0 0 2.421-4.74 4.352 4.352 0 0 1 .818-1.859 3.732 3.732 0 0 1 2.319-.872 121.957 121.957 0 0 1 13.068-.974 3.248 3.248 0 0 0 1.718-.351c1.228-.791.818-2.7.043-3.937a12.321 12.321 0 0 0-6.571-5.128 31.1 31.1 0 0 0-6.051-1 74.606 74.606 0 0 0-8.18-.849 13.388 13.388 0 0 0-7.822 2.092c-1.633 1.151-4.313 4.376-3 6.411.21.326.873.487 1.155.819.384.452.386 1.135.822 1.546.724.683 2.045.467 2.631 1.327z" class="cls-5" data-name="Path 235" transform="translate(-466.722 -201.285)"/>
        <path id="Path_236" d="M636.1 189.414s-18.466 6.517-16.836 15.75 6.517 20.095 16.836 19.552 15.75-11.775 15.75-11.775l-2.716-15.38s-10.321-8.147-13.034-8.147z" class="cls-1" data-name="Path 236" transform="translate(-466.732 -188.15)"/>
        <path id="Path_237" d="M646.057 245.44s7.26-7.876 10.915-3.309c0-.001-.167-.231-10.915 3.309z" class="cls-5" data-name="Path 237" transform="translate(-479.021 -211.585)"/>
        <path id="Path_238" d="M595.727 580.36c-9.736 0-21.781-3.225-33.519-14.882-28.736-28.54-56.036-31.4-56.308-31.428l.1-1.082c.276.026 27.964 2.928 56.973 31.738 14.906 14.8 30.292 15.711 40.574 13.864a50.7 50.7 0 0 0 19.008-7.661l.642.876a51.836 51.836 0 0 1-19.415 7.846 45.354 45.354 0 0 1-8.055.729z" class="cls-5" data-name="Path 238" transform="translate(-414.984 -345.117)"/>
        <ellipse id="Ellipse_90" cx="6.517" cy="6.517" class="cls-5" data-name="Ellipse 90" rx="6.517" ry="6.517" transform="translate(99.034 198.683)"/>
        <ellipse id="Ellipse_91" cx="6.517" cy="6.517" class="cls-5" data-name="Ellipse 91" rx="6.517" ry="6.517" transform="translate(145.198 229.097)"/>
        <path id="Path_239" d="M620.3 633.556q-19.81-3.1-38.1-5.276l4.694-9.388c-1.629-.543-8.69 4.888-8.69 4.888l5.974-27.155c-8.147 1.086-11.948 28.785-11.948 28.785l-9.233-9.233 4.545 10.453A841.712 841.712 0 0 0 471 621.768l4.018-8.035c-1.629-.543-8.69 4.888-8.69 4.888l5.974-27.155c-8.147 1.086-11.948 28.785-11.948 28.785l-9.233-9.233 4.814 11.072a541.957 541.957 0 0 0-55.409 4.462c4.009-12.489 18.009-24.5 18.009-24.5-10.765 3.349-16.365 8.805-19.264 13.863a218.092 218.092 0 0 1 11.66-75.505s-21.724 48.88-18.466 81.466l.413 5.788c-18.9 2.948-28.383 5.888-28.383 5.888z" class="cls-1" data-name="Path 239" transform="translate(-350.379 -348.519)"/>
    </g>
</svg>
